<svg width="34" height="34" viewBox="0 0 34 34" fill="none" xmlns="http://www.w3.org/2000/svg">
<path d="M15.3333 12H18.6667V8.66668H15.3333M17 30.3333C9.65001 30.3333 3.66668 24.35 3.66668 17C3.66668 9.65001 9.65001 3.66668 17 3.66668C24.35 3.66668 30.3333 9.65001 30.3333 17C30.3333 24.35 24.35 30.3333 17 30.3333ZM17 0.333344C14.8113 0.333344 12.644 0.76444 10.622 1.60202C8.59986 2.4396 6.76254 3.66725 5.2149 5.2149C2.08929 8.3405 0.333344 12.5797 0.333344 17C0.333344 21.4203 2.08929 25.6595 5.2149 28.7851C6.76254 30.3328 8.59986 31.5604 10.622 32.398C12.644 33.2356 14.8113 33.6667 17 33.6667C21.4203 33.6667 25.6595 31.9107 28.7851 28.7851C31.9107 25.6595 33.6667 21.4203 33.6667 17C33.6667 14.8113 33.2356 12.644 32.398 10.622C31.5604 8.59986 30.3328 6.76254 28.7851 5.2149C27.2375 3.66725 25.4002 2.4396 23.3781 1.60202C21.356 0.76444 19.1887 0.333344 17 0.333344ZM15.3333 25.3333H18.6667V15.3333H15.3333V25.3333Z" fill="#FED059"/>
</svg>
