<svg width="28" height="34" viewBox="0 0 28 34" fill="none" xmlns="http://www.w3.org/2000/svg">
<path d="M14 17C14.9167 17 15.7017 16.6733 16.355 16.02C17.0072 15.3678 17.3333 14.5833 17.3333 13.6667C17.3333 12.75 17.0072 11.965 16.355 11.3117C15.7017 10.6595 14.9167 10.3333 14 10.3333C13.0833 10.3333 12.2989 10.6595 11.6467 11.3117C10.9933 11.965 10.6667 12.75 10.6667 13.6667C10.6667 14.5833 10.9933 15.3678 11.6467 16.02C12.2989 16.6733 13.0833 17 14 17ZM14 29.25C17.3889 26.1389 19.9028 23.3122 21.5417 20.77C23.1805 18.2289 24 15.9722 24 14C24 10.9722 23.0344 8.49279 21.1033 6.56168C19.1733 4.63168 16.8055 3.66668 14 3.66668C11.1944 3.66668 8.8261 4.63168 6.89499 6.56168C4.96499 8.49279 3.99999 10.9722 3.99999 14C3.99999 15.9722 4.81943 18.2289 6.45832 20.77C8.09721 23.3122 10.6111 26.1389 14 29.25ZM14 33.6667C9.52777 29.8611 6.18777 26.3261 3.97999 23.0617C1.7711 19.7983 0.666656 16.7778 0.666656 14C0.666656 9.83334 2.00721 6.5139 4.68832 4.04168C7.36832 1.56945 10.4722 0.333344 14 0.333344C17.5278 0.333344 20.6317 1.56945 23.3117 4.04168C25.9928 6.5139 27.3333 9.83334 27.3333 14C27.3333 16.7778 26.2294 19.7983 24.0217 23.0617C21.8128 26.3261 18.4722 29.8611 14 33.6667Z" fill="#FED059"/>
</svg>
